<svg width="1024" height="1024" viewBox="0 0 1024 1024" fill="none" xmlns="http://www.w3.org/2000/svg">
<rect width="1024" height="1024" fill="#8D1312"/>
<path d="M301.969 302.176C329.312 302.176 354.508 308.719 377.555 321.805C400.797 334.695 419.156 352.176 432.633 374.246C446.305 396.121 453.141 420.047 453.141 446.023C453.141 472.586 445.523 498.172 430.289 522.781L306.656 722H221.695L304.605 591.336C284.684 591.727 265.836 588.309 248.062 581.082C229.508 574.246 212.906 564.188 198.258 550.906C183.609 537.625 172.086 522 163.688 504.031C155.484 486.062 151.383 466.922 151.383 446.609C151.383 420.438 158.121 396.316 171.598 374.246C185.27 352.176 203.629 334.695 226.676 321.805C249.723 308.719 274.82 302.176 301.969 302.176ZM301.969 522.195C316.422 522.195 329.605 518.777 341.52 511.941C353.629 505.105 363.102 495.926 369.938 484.402C376.969 472.879 380.484 460.281 380.484 446.609C380.484 432.938 376.969 420.34 369.938 408.816C363.102 397.293 353.629 388.113 341.52 381.277C329.605 374.441 316.422 371.023 301.969 371.023C287.906 371.023 274.918 374.441 263.004 381.277C251.09 388.113 241.617 397.391 234.586 409.109C227.555 420.633 224.039 433.133 224.039 446.609C224.039 460.086 227.555 472.684 234.586 484.402C241.617 495.926 251.09 505.105 263.004 511.941C274.918 518.777 287.906 522.195 301.969 522.195ZM475.465 644.656H547.242V722H475.465V644.656ZM719.859 302.176C747.203 302.176 772.398 308.719 795.445 321.805C818.688 334.695 837.047 352.176 850.523 374.246C864.195 396.121 871.031 420.047 871.031 446.023C871.031 472.586 863.414 498.172 848.18 522.781L724.547 722H639.586L722.496 591.336C702.574 591.727 683.727 588.309 665.953 581.082C647.398 574.246 630.797 564.188 616.148 550.906C601.5 537.625 589.977 522 581.578 504.031C573.375 486.062 569.273 466.922 569.273 446.609C569.273 420.438 576.012 396.316 589.488 374.246C603.16 352.176 621.52 334.695 644.566 321.805C667.613 308.719 692.711 302.176 719.859 302.176ZM719.859 522.195C734.312 522.195 747.496 518.777 759.41 511.941C771.52 505.105 780.992 495.926 787.828 484.402C794.859 472.879 798.375 460.281 798.375 446.609C798.375 432.938 794.859 420.34 787.828 408.816C780.992 397.293 771.52 388.113 759.41 381.277C747.496 374.441 734.312 371.023 719.859 371.023C705.797 371.023 692.809 374.441 680.895 381.277C668.98 388.113 659.508 397.391 652.477 409.109C645.445 420.633 641.93 433.133 641.93 446.609C641.93 460.086 645.445 472.684 652.477 484.402C659.508 495.926 668.98 505.105 680.895 511.941C692.809 518.777 705.797 522.195 719.859 522.195Z" fill="white"/>
</svg>
